<?xml version="1.0" encoding="utf-8"?>
<!-- Generator: Adobe Illustrator 15.0.0, SVG Export Plug-In . SVG Version: 6.00 Build 0)  -->
<!DOCTYPE svg PUBLIC "-//W3C//DTD SVG 1.1//EN" "http://www.w3.org/Graphics/SVG/1.1/DTD/svg11.dtd">
<svg version="1.1" id="Layer_1" xmlns="http://www.w3.org/2000/svg" xmlns:xlink="http://www.w3.org/1999/xlink" x="0px" y="0px"
	 width="300px" height="300px" viewBox="0 0 300 300" enable-background="new 0 0 300 300" xml:space="preserve">
<circle fill="#ABC997" cx="150" cy="150" r="150"/>
<path fill="#CDDFC1" d="M0,150c0,13.928,1.906,27.409,5.458,40.206c19.844,9.686,42.14,15.128,65.708,15.128
	c82.843,0,150-67.157,150-150c0-13.928-1.906-27.409-5.458-40.206C195.863,5.442,173.568,0,150,0C67.157,0,0,67.157,0,150z"/>
<path fill="#574321" d="M224.863,138.272L72.999,225.951l40.109,69.472C124.911,298.408,137.269,300,150,300
	c53.753,0,100.894-28.28,127.378-70.769L224.863,138.272z"/>
<g>
	<path fill="#7D5F45" d="M226.379,220.737c0,5.299-3.481,9.597-7.778,9.597H92.403c-4.297,0-7.78-4.298-7.78-9.597V143.97
		c0-5.299,3.483-9.596,7.78-9.596h126.197c4.297,0,7.778,4.297,7.778,9.596V220.737z"/>
	<g>
		<rect x="95.637" y="55.334" fill="#FFFFFF" width="99.986" height="143.496"/>
		<line fill="none" stroke="#000000" stroke-width="0.5" stroke-miterlimit="10" x1="108.6" y1="74.312" x2="180.81" y2="74.312"/>
		<line fill="none" stroke="#000000" stroke-width="0.5" stroke-miterlimit="10" x1="108.6" y1="83.015" x2="180.81" y2="83.015"/>
		<line fill="none" stroke="#000000" stroke-width="0.5" stroke-miterlimit="10" x1="108.6" y1="91.716" x2="180.81" y2="91.716"/>
		
			<line fill="none" stroke="#000000" stroke-width="0.5" stroke-miterlimit="10" x1="108.6" y1="100.419" x2="180.81" y2="100.419"/>
		
			<line fill="none" stroke="#000000" stroke-width="0.5" stroke-miterlimit="10" x1="108.6" y1="109.121" x2="180.81" y2="109.121"/>
		
			<line fill="none" stroke="#000000" stroke-width="0.5" stroke-miterlimit="10" x1="108.6" y1="117.823" x2="180.81" y2="117.823"/>
		
			<line fill="none" stroke="#000000" stroke-width="0.5" stroke-miterlimit="10" x1="108.6" y1="127.367" x2="180.81" y2="127.367"/>
		<line fill="none" stroke="#000000" stroke-width="0.5" stroke-miterlimit="10" x1="108.6" y1="136.68" x2="180.81" y2="136.68"/>
	</g>
	
		<rect x="86.443" y="122.333" transform="matrix(0.8243 -0.5662 0.5662 0.8243 -59.5383 100.2634)" fill="#7A7A47" width="90.611" height="47.423"/>
	
		<rect x="107.325" y="118.662" transform="matrix(0.9202 -0.3915 0.3915 0.9202 -43.5595 71.1296)" fill="#A2A25E" width="90.611" height="47.422"/>
	<path fill="#986647" d="M212.923,220.737c0,5.299-3.482,9.597-7.778,9.597H78.946c-4.296,0-7.78-4.298-7.78-9.597V143.97
		c0-5.299,3.484-9.596,7.78-9.596h126.198c4.296,0,7.778,4.297,7.778,9.596V220.737z"/>
	<path fill="none" stroke="#EDDFAF" stroke-width="3" stroke-miterlimit="10" d="M71.166,146.611h121.739
		c4.297,0,7.779,3.202,7.779,7.147v57.188c0,3.946-3.482,7.149-7.779,7.149H71.166"/>
	<g>
		<path fill="#FFFFFF" d="M179.539,128.837c-1.712,0.497-3.578,0.735-5.071,0.408l0.478-3.155c1.741,0.247,3.301,0.006,4.826-0.63
			c2.117-0.88,2.284-1.511,1.986-2.229c-0.392-0.937-1.093-0.816-3.21-0.194c-2.548,0.716-5.301,1.409-6.695-1.937
			c-1.071-2.575-0.253-4.339,2.083-5.723l-0.604-1.453l3.346-1.393l0.597,1.433c1.731-0.504,2.909-0.477,3.83-0.386l-0.424,3.327
			c-0.966-0.139-2.638,0.147-3.851,0.653c-1.747,0.727-1.821,1.276-1.575,1.864c0.429,1.029,1.36,0.729,3.508,0.136
			c2.5-0.675,5.029-1.188,6.339,1.956c0.934,2.244,0.454,4.255-2.237,5.872l0.772,1.858l-3.346,1.393L179.539,128.837z"/>
	</g>
	<path fill="#C11626" d="M228.833,191.72c0,1.353-1.441,2.447-3.22,2.447h-52.229c-1.778,0-3.22-1.095-3.22-2.447v-19.58
		c0-1.352,1.441-2.447,3.22-2.447h52.229c1.778,0,3.22,1.096,3.22,2.447V191.72z"/>
	<circle fill="#EDDFAF" cx="182.519" cy="182.354" r="6.527"/>
</g>
</svg>
